<svg width="24" height="24" viewBox="0 0 24 24" fill="none" xmlns="http://www.w3.org/2000/svg">
<g id="AiOutlinePushpin">
<path id="Vector" d="M20.5853 9.18984L14.8103 3.41484C14.6579 3.2625 14.4587 3.1875 14.2595 3.1875C14.0603 3.1875 13.861 3.2625 13.7087 3.41484L9.93292 7.19297C9.64698 7.16016 9.3587 7.14609 9.07042 7.14609C7.3548 7.14609 5.63917 7.71094 4.23058 8.84063C4.14528 8.90912 4.07536 8.99481 4.02539 9.09212C3.97542 9.18943 3.9465 9.29618 3.94053 9.40541C3.93456 9.51464 3.95167 9.6239 3.99074 9.72608C4.02981 9.82826 4.08997 9.92106 4.1673 9.99844L8.42589 14.257L3.37745 19.3008C3.31559 19.3623 3.27741 19.4436 3.26964 19.5305L3.18995 20.4023C3.16886 20.6227 3.34464 20.8102 3.56261 20.8102C3.57433 20.8102 3.58605 20.8102 3.59776 20.8078L4.46964 20.7281C4.55636 20.7211 4.63839 20.6813 4.69933 20.6203L9.74776 15.5719L14.0064 19.8305C14.1587 19.9828 14.3579 20.0578 14.5571 20.0578C14.7845 20.0578 15.0095 19.9594 15.1642 19.7672C16.4837 18.1195 17.0321 16.057 16.8095 14.0625L20.5853 10.2867C20.8876 9.98672 20.8876 9.49453 20.5853 9.18984ZM15.6142 12.8742L15.04 13.4484L15.129 14.2547C15.2687 15.5017 15.0198 16.7615 14.4165 17.8617L6.14073 9.58125C6.44308 9.41484 6.75714 9.27422 7.08526 9.16172C7.72276 8.94141 8.39073 8.83125 9.07042 8.83125C9.29542 8.83125 9.52276 8.84297 9.74776 8.86875L10.554 8.95781L11.1282 8.38359L14.2618 5.25L18.7501 9.73828L15.6142 12.8742Z" fill="black"/>
</g>
</svg>
