<svg width="24" height="24" viewBox="0 0 24 24" fill="none" xmlns="http://www.w3.org/2000/svg">
<g id="CkStar">
<g id="Vector">
<path d="M19.7988 9.77435C19.7261 9.57896 19.5955 9.41041 19.4245 9.2912C19.2534 9.17198 19.0501 9.10778 18.8416 9.10716H14.6976C14.627 9.10721 14.5582 9.08536 14.5007 9.04463C14.4431 9.0039 14.3996 8.94629 14.3762 8.87978L12.8887 4.66356C12.8158 4.46868 12.6852 4.30072 12.5142 4.18213C12.3433 4.06354 12.1402 4 11.9321 4C11.7241 4 11.521 4.06354 11.3501 4.18213C11.1791 4.30072 11.0485 4.46868 10.9756 4.66356L10.9722 4.67445L9.48805 8.87978C9.46467 8.94618 9.42129 9.00371 9.36386 9.04443C9.30643 9.08516 9.23779 9.10707 9.16739 9.10716H5.02197C4.81216 9.10701 4.60739 9.17148 4.43552 9.29181C4.26364 9.41214 4.133 9.5825 4.06137 9.7797C3.98973 9.9769 3.98058 10.1914 4.03515 10.394C4.08972 10.5966 4.20536 10.7774 4.36636 10.912L7.89565 13.8394C7.94844 13.8832 7.98676 13.942 8.00559 14.0079C8.02442 14.0739 8.02288 14.144 8.00117 14.2091L6.51838 18.6554C6.44985 18.861 6.4485 19.0831 6.51452 19.2895C6.58053 19.4959 6.71049 19.6759 6.8856 19.8036C7.06071 19.9312 7.27189 19.9999 7.48859 19.9996C7.70529 19.9993 7.91628 19.9301 8.09104 19.8019L11.7306 17.1332C11.789 17.0904 11.8594 17.0674 11.9318 17.0674C12.0041 17.0674 12.0746 17.0904 12.133 17.1332L15.7712 19.8012C15.9459 19.9298 16.1569 19.9994 16.3738 20C16.5907 20.0006 16.8022 19.9321 16.9776 19.8044C17.1529 19.6768 17.2831 19.4966 17.3492 19.29C17.4153 19.0834 17.4139 18.8612 17.3452 18.6554L15.8624 14.2064C15.8407 14.1413 15.8392 14.0712 15.858 14.0052C15.8768 13.9393 15.9151 13.8805 15.9679 13.8367L19.504 10.9052C19.663 10.7695 19.7765 10.5883 19.8292 10.3861C19.8819 10.1839 19.8713 9.97036 19.7988 9.77435Z" fill="#FFF16E"/>
<path d="M11.4467 4.83227L11.4437 4.84085L9.95969 9.04577L9.95955 9.04618L9.48805 8.87978C9.46467 8.94618 9.42129 9.00371 9.36386 9.04443L9.65308 9.45229C9.5113 9.55283 9.34184 9.60694 9.16803 9.60716L9.16739 9.60716L5.02197 9.60716H5.0216C4.91451 9.60708 4.81 9.63999 4.72228 9.7014C4.63456 9.76282 4.56788 9.84976 4.53132 9.95041C4.49476 10.0511 4.49009 10.1605 4.51794 10.2639C4.54572 10.3671 4.60453 10.4592 4.6864 10.5278C4.68659 10.528 4.68679 10.5281 4.68698 10.5283L8.21486 13.4546L8.21495 13.4547C8.34529 13.5628 8.4399 13.7078 8.48639 13.8707C8.53288 14.0336 8.52907 14.2067 8.47547 14.3673L6.99272 18.8136C6.99272 18.8136 6.99271 18.8136 6.9927 18.8136C6.95775 18.9185 6.95706 19.0318 6.99075 19.1372C7.02444 19.2425 7.09077 19.3344 7.18015 19.3995C7.26952 19.4647 7.3773 19.4997 7.4879 19.4996C7.5985 19.4994 7.70619 19.4641 7.79538 19.3987L11.435 16.7299L11.4351 16.7298C11.5792 16.6243 11.7532 16.5674 11.9318 16.5674C12.1104 16.5674 12.2844 16.6243 12.4285 16.7298L12.4287 16.73L16.0669 19.398L16.0676 19.3986C16.1567 19.4642 16.2645 19.4997 16.3752 19.5C16.4859 19.5003 16.5938 19.4653 16.6833 19.4002C16.7728 19.335 16.8392 19.2431 16.873 19.1376C16.9067 19.0322 16.906 18.9188 16.8709 18.8138L16.8709 18.8135L15.3881 14.3646C15.3881 14.3646 15.3881 14.3645 15.3881 14.3645C15.3345 14.2039 15.3307 14.0308 15.3772 13.868C15.3772 13.868 15.3772 13.868 15.3772 13.868L11.4467 4.83227ZM11.4467 4.83227L11.4481 4.82799M11.4467 4.83227L11.4481 4.82799M11.4481 4.82799C11.4859 4.73307 11.5509 4.6513 11.6351 4.59296C11.7223 4.53243 11.8259 4.5 11.9321 4.5C12.0383 4.5 12.142 4.53243 12.2292 4.59296C12.3154 4.65274 12.3815 4.73712 12.419 4.83504L13.9046 9.04577C13.9046 9.04589 13.9047 9.04601 13.9047 9.04613L11.4481 4.82799ZM19.3453 10.26C19.3187 10.3622 19.2616 10.4539 19.1817 10.5229L14.6976 9.60716H14.6979H18.8408C18.9473 9.60761 19.0512 9.64048 19.1386 9.70139C19.226 9.76232 19.2928 9.84842 19.33 9.94824C19.3669 10.0481 19.3722 10.1569 19.3453 10.26Z" stroke="black" stroke-opacity="0.17"/>
</g>
</g>
</svg>
